<svg width="25" height="24" viewBox="0 0 25 24" fill="none" xmlns="http://www.w3.org/2000/svg">
<path fill-rule="evenodd" clip-rule="evenodd" d="M12.25 3.75024C7.69365 3.75024 4 7.44389 4 12.0002C4 16.5566 7.69365 20.2502 12.25 20.2502C16.8063 20.2502 20.5 16.5566 20.5 12.0002C20.5 7.44389 16.8063 3.75024 12.25 3.75024ZM2.5 12.0002C2.5 6.61547 6.86522 2.25024 12.25 2.25024C17.6348 2.25024 22 6.61547 22 12.0002C22 17.385 17.6348 21.7502 12.25 21.7502C6.86522 21.7502 2.5 17.385 2.5 12.0002Z" fill="#00B37E"/>
<path fill-rule="evenodd" clip-rule="evenodd" d="M12.25 7.50024C12.4489 7.50024 12.6396 7.57926 12.7803 7.71991L15.9584 10.898C16.2513 11.1909 16.2513 11.6658 15.9584 11.9587C15.6655 12.2516 15.1907 12.2516 14.8978 11.9587L12.25 9.3109L9.60217 11.9587C9.30928 12.2516 8.8344 12.2516 8.54151 11.9587C8.24862 11.6658 8.24862 11.1909 8.54151 10.898L11.7196 7.71991C11.8603 7.57926 12.0511 7.50024 12.25 7.50024Z" fill="#00B37E"/>
<path fill-rule="evenodd" clip-rule="evenodd" d="M12.25 7.50024C12.6642 7.50024 13 7.83603 13 8.25024L13 15.7502C13 16.1645 12.6642 16.5002 12.25 16.5002C11.8358 16.5002 11.5 16.1645 11.5 15.7502L11.5 8.25024C11.5 7.83603 11.8358 7.50024 12.25 7.50024Z" fill="#00B37E"/>
</svg>
